<svg xmlns="http://www.w3.org/2000/svg" viewBox="0 0 1779.73 433.07"><defs><style>.cls-1,.cls-2,.cls-3{fill:#f18a35;}.cls-2,.cls-3{stroke:#f7931e;stroke-miterlimit:10;}.cls-2{stroke-width:5px;}.cls-3{stroke-width:10px;}</style></defs><title>Asset 7</title><g id="Layer_2" data-name="Layer 2"><g id="Layer_1-2" data-name="Layer 1"><path class="cls-1" d="M235.82,192.69V338.16H153.65V204c0-27.76-10.43-41.54-31.11-41.54-25.62,0-40.37,17.9-40.37,48.26v127.4H0V99.59H57.65l11.29,24.6C86.7,104.4,113.19,92.54,144,92.54,199.44,92.54,235.82,131.91,235.82,192.69Z"/><path class="cls-1" d="M828.5,13.44V338.16H767.69l-7.75-17.72c-19.41,16.34-44.17,25.79-72,25.79-73.2,0-125.35-53.21-125.35-127.35S614.78,91.77,688,91.77a111.29,111.29,0,0,1,59.28,16.57V13.44ZM752.38,218.88c0-31.16-22.63-54.6-53.41-54.6s-53.4,23.44-53.4,54.6,22.63,54.59,53.4,54.59S752.38,250,752.38,218.88Z"/><path class="cls-1" d="M1125.86,216.62a151.14,151.14,0,0,1-1.7,21.76H947c5.37,27.36,22.75,41.51,48.7,41.51,19.2,0,35.23-8.41,43.13-22.37h81.77c-16.79,54.44-65,88.46-124.9,88.46-74.44,0-129.58-54.4-129.58-127.29,0-73.13,54.7-126.91,129.58-126.91,76.9,0,130.14,54.86,130.14,124.83ZM948.47,192.87h96.44c-7.21-23.84-24.4-36.71-49.2-36.71C971.77,156.16,955.12,169.17,948.47,192.87Z"/><path class="cls-1" d="M1255.26,346c-65,0-104.54-34.34-105.29-86h79.1c0,17.45,12.14,25.48,27.72,25.48,12,0,23.42-6.13,23.42-18.46,0-13.76-18.06-17.69-41-21.48-37-6-86-17.16-86-75,0-47.81,40.75-78.69,101.87-78.69,60.75,0,100.13,32.32,101.06,80.66h-77c0-15.23-10.24-22.31-25.13-22.31-13.17,0-22,6.52-22,17.57,0,13.58,18.25,16.74,40.91,20.78,37.69,6.69,87.79,14.53,87.79,75,0,49.85-42.07,82.48-105.48,82.48Z"/><path class="cls-1" d="M1399.14,99.59h82.17V338.15h-82.17ZM1399.77,0h80.91V69.74h-80.91Z"/><path class="cls-1" d="M1779.73,99.6V311.65c0,75-49.08,121.42-127.88,121.42-67.7,0-115.09-34.14-126.07-90.68h79.3c5.69,15.95,26.05,24.54,46,24.54,27.54,0,49.67-17.5,49.67-45.87v-7.12a115.58,115.58,0,0,1-62.26,17.91c-68.39,0-119.21-50.88-119.21-119.91,0-68,50.82-120,119.21-120a115,115,0,0,1,75.25,27.65l10.42-20ZM1652.15,264.2c29.5,0,50.74-21.87,50.74-52.26,0-30.13-21.17-52-50.74-52s-50.93,21.87-50.93,52c0,30.39,21.16,52.26,50.92,52.26Z"/><rect class="cls-2" x="400.86" y="90.23" width="1.19" height="259.83"/><rect class="cls-2" x="400.86" y="90.23" width="1.19" height="259.83" transform="translate(10.08 457.75) rotate(-60)"/><path class="cls-2" d="M514.77,285.68H288.15V154.57H514.77Zm-225.43-1.19H513.57V155.76H289.34Z"/><path class="cls-2" d="M401.46,286.12l-.3-.17-56.84-32.82v-66l.3-.17,56.85-32.49.29.17,56.84,32.49v66l-.3.17Zm-55.95-33.68,55.95,32.31,56-32.31v-64.6l-55.94-32-56,32Z"/><path class="cls-2" d="M515,285.69H287.92L401.46,89ZM290,284.5h223L401.46,91.42Z"/><path class="cls-2" d="M401.46,351.25,287.92,154.59H515ZM290,155.78,401.46,348.87,512.94,155.78Z"/><path class="cls-2" d="M401.46,285.58l-57.73-100H459.19ZM345.8,186.79l55.66,96.41,55.66-96.41Z"/><rect class="cls-2" x="271.72" y="218.82" width="259.47" height="1.19" transform="translate(-55.97 227.76) rotate(-29.7)"/><circle class="cls-3" cx="401.09" cy="91.74" r="3.79"/><circle class="cls-3" cx="513.24" cy="155.26" r="3.79"/><circle class="cls-3" cx="513.24" cy="283.95" r="3.79"/><circle class="cls-3" cx="401.09" cy="348.02" r="3.79"/><circle class="cls-3" cx="290.28" cy="283.95" r="3.79"/><circle class="cls-3" cx="345.27" cy="251.52" r="3.79"/><circle class="cls-3" cx="401.09" cy="283.95" r="3.79"/><circle class="cls-3" cx="345.77" cy="187.26" r="3.79"/><circle class="cls-3" cx="290.28" cy="155.26" r="3.79"/><circle class="cls-3" cx="401.09" cy="155.26" r="3.79"/><circle class="cls-3" cx="457.31" cy="187.26" r="3.79"/><circle class="cls-3" cx="458.45" cy="251.52" r="3.79"/><path class="cls-2" d="M401.46,350.74l-.3-.17L288.35,285.44V154.84l.3-.17L401.46,89.54l.3.17,112.8,65.13v130.6l-.29.17Zm-111.92-66,111.92,64.61,111.91-64.61V155.53L401.46,90.91,289.54,155.53Z"/></g></g></svg>