<svg xmlns="http://www.w3.org/2000/svg" viewBox="0 0 370 370"><defs><style>.cls-1{fill:#fff;}.cls-2,.cls-3{fill:#f18a35;stroke:#f7931e;stroke-miterlimit:10;}.cls-2{stroke-width:5px;}.cls-3{stroke-width:10px;}</style></defs><title>Asset 6</title><g id="Layer_2" data-name="Layer 2"><g id="Layer_1-2" data-name="Layer 1"><circle class="cls-1" cx="185" cy="185" r="185"/><rect class="cls-2" x="183.87" y="21.08" width="1.51" height="328.49"/><rect class="cls-2" x="183.87" y="21.08" width="1.51" height="328.49" transform="translate(-68.19 252.55) rotate(-60)"/><path class="cls-2" d="M327.87,268.18H41.37V102.42h286.5Zm-285-1.5H326.36V103.93H42.88Z"/><path class="cls-2" d="M184.62,268.74l-.38-.21L112.38,227V143.62l.38-.22,71.87-41.07.37.21,71.86,41.08V227l-.38.21Zm-70.74-42.57L184.62,267l70.73-40.83V144.49l-70.72-40.43-70.75,40.43Z"/><path class="cls-2" d="M328.16,268.2H41.07L184.62,19.58ZM43.68,266.7H325.56L184.62,22.59Z"/><path class="cls-2" d="M184.62,351.08,41.07,102.45H328.16ZM43.68,104,184.62,348.07,325.56,104Z"/><path class="cls-2" d="M184.62,268.06l-73-126.41h146Zm-70.38-124.9,70.38,121.89L255,143.16Z"/><rect class="cls-2" x="20.6" y="183.65" width="328.04" height="1.51" transform="translate(-67.12 115.71) rotate(-29.7)"/><circle class="cls-3" cx="184.15" cy="23" r="4.79"/><circle class="cls-3" cx="325.94" cy="103.3" r="4.79"/><circle class="cls-3" cx="325.94" cy="266" r="4.79"/><circle class="cls-3" cx="184.15" cy="347" r="4.79"/><circle class="cls-3" cx="44.06" cy="266" r="4.79"/><circle class="cls-3" cx="113.58" cy="225" r="4.79"/><circle class="cls-3" cx="184.15" cy="266" r="4.79"/><circle class="cls-3" cx="114.22" cy="143.75" r="4.79"/><circle class="cls-3" cx="44.06" cy="103.3" r="4.79"/><circle class="cls-3" cx="184.15" cy="103.3" r="4.79"/><circle class="cls-3" cx="255.23" cy="143.75" r="4.79"/><circle class="cls-3" cx="256.67" cy="225" r="4.79"/><path class="cls-2" d="M184.62,350.44l-.38-.21L41.62,267.89V102.77l.38-.22L184.62,20.21l.38.22,142.61,82.34V267.89l-.37.21ZM43.13,267,184.62,348.7,326.11,267V103.64L184.62,22,43.13,103.64Z"/></g></g></svg>